
      <svg data-logo="logo" xmlns="http://www.w3.org/2000/svg" viewBox="0 0 166 43">
        <g id="logogram" transform="translate(0, 1) rotate(0) "><path d="M13.1469 0.69989L23.4811 9.52876C24.0946 10.0529 24.4483 10.8221 24.4483 11.6322V18.2861L14.1141 9.45723C13.5006 8.93308 13.1469 8.16389 13.1469 7.35375V0.69989Z" fill="#7B19D8"/><path d="M13.1469 40.6999L23.4811 31.871C24.0946 31.3469 24.4483 30.5777 24.4483 29.7675V23.1137L14.1141 31.9426C13.5006 32.4667 13.1469 33.2359 13.1469 34.046V40.6999Z" fill="#7B19D8"/><path d="M0.818115 10.0102L11.0117 18.6704C11.5059 19.0903 12.1318 19.3206 12.7785 19.3206H20.9992L10.8306 10.6624C10.3361 10.2413 9.70929 10.0102 9.06158 10.0102H0.818115Z" fill="#7B19D8"/><path d="M0.818115 31.3895L10.949 22.7343C11.4441 22.3114 12.0723 22.0792 12.7216 22.0792H21.0236L10.8301 30.7393C10.3358 31.1592 9.70997 31.3895 9.06329 31.3895H0.818115Z" fill="#7B19D8"/><path d="M38.4893 0.69989L28.1552 9.52876C27.5417 10.0529 27.188 10.8221 27.188 11.6322V18.2861L37.5222 9.45723C38.1357 8.93308 38.4893 8.16389 38.4893 7.35375V0.69989Z" fill="#7B19D8"/><path d="M38.4893 40.6999L28.1552 31.871C27.5417 31.3469 27.188 30.5777 27.188 29.7675V23.1137L37.5222 31.9426C38.1357 32.4667 38.4893 33.2359 38.4893 34.046V40.6999Z" fill="#7B19D8"/><path d="M50.8181 10.0102L40.6245 18.6704C40.1303 19.0903 39.5045 19.3206 38.8578 19.3206H30.6371L40.8056 10.6624C41.3002 10.2413 41.9269 10.0102 42.5747 10.0102H50.8181Z" fill="#7B19D8"/><path d="M50.8181 31.3895L40.6872 22.7343C40.1921 22.3114 39.564 22.0792 38.9147 22.0792H30.6126L40.8062 30.7393C41.3004 31.1592 41.9263 31.3895 42.5729 31.3895H50.8181Z" fill="#7B19D8"/></g>
        <g id="logotype" transform="translate(57, 1)">
          <!-- "proje" in black -->
          <path fill="#111111" d="M13.52 34L8.31 34L8.31 8.54L18.24 8.54Q21.14 8.54 23.18 9.64Q25.21 10.74 26.28 12.68Q27.35 14.62 27.35 17.13L27.35 17.13Q27.35 19.66 26.26 21.58Q25.17 23.51 23.12 24.59Q21.06 25.68 18.12 25.68L18.12 25.68L11.73 25.68L11.73 21.47L17.28 21.47Q18.89 21.47 19.92 20.92Q20.95 20.36 21.46 19.39Q21.96 18.41 21.96 17.13L21.96 17.13Q21.96 15.85 21.46 14.88Q20.95 13.90 19.91 13.37Q18.87 12.84 17.26 12.84L17.26 12.84L13.52 12.84L13.52 34ZM33.72 34L28.59 34L28.59 14.89L33.55 14.89L33.55 18.23L33.75 18.23Q34.28 16.45 35.52 15.54Q36.76 14.64 38.37 14.64L38.37 14.64Q38.76 14.64 39.21 14.68Q39.66 14.72 40.02 14.81L40.02 14.81L40.02 19.39Q39.68 19.27 39.03 19.20Q38.38 19.13 37.80 19.13L37.80 19.13Q36.64 19.13 35.70 19.64Q34.76 20.14 34.24 21.04Q33.72 21.93 33.72 23.13L33.72 23.13L33.72 34ZM49.11 34.38L49.11 34.38Q46.24 34.38 44.14 33.14Q42.04 31.90 40.90 29.68Q39.77 27.47 39.77 24.53L39.77 24.53Q39.77 21.56 40.90 19.35Q42.04 17.13 44.14 15.89Q46.24 14.65 49.11 14.65L49.11 14.65Q52.00 14.65 54.10 15.89Q56.19 17.13 57.33 19.35Q58.46 21.56 58.46 24.53L58.46 24.53Q58.46 27.47 57.33 29.68Q56.19 31.90 54.10 33.14Q52.00 34.38 49.11 34.38ZM49.11 30.34L49.11 30.34Q50.48 30.34 51.40 29.58Q52.33 28.82 52.79 27.50Q53.25 26.17 53.25 24.52L53.25 24.52Q53.25 22.82 52.79 21.51Q52.33 20.19 51.40 19.44Q50.48 18.69 49.11 18.69L49.11 18.69Q47.75 18.69 46.83 19.44Q45.92 20.19 45.46 21.51Q44.99 22.82 44.99 24.52L44.99 24.52Q44.99 26.17 45.46 27.50Q45.92 28.82 46.83 29.58Q47.75 30.34 49.11 30.34ZM59.74 34.91L59.74 14.89L64.89 14.89L64.89 34.97Q64.89 37.16 64.03 38.52Q63.18 39.88 61.58 40.51Q59.98 41.14 57.76 41.14L57.76 41.14L56.72 41.14L56.72 37.11L57.40 37.11Q58.70 37.11 59.22 36.55Q59.74 36.00 59.74 34.91L59.74 34.91ZM62.32 12.40L62.32 12.40Q61.16 12.40 60.34 11.63Q59.52 10.86 59.52 9.77L59.52 9.77Q59.52 8.67 60.34 7.90Q61.16 7.13 62.32 7.13L62.32 7.13Q63.48 7.13 64.31 7.90Q65.14 8.66 65.14 9.77L65.14 9.77Q65.14 10.86 64.31 11.63Q63.48 12.40 62.32 12.40ZM75.60 34.38L75.60 34.38Q72.68 34.38 70.56 33.18Q68.44 31.98 67.30 29.78Q66.17 27.57 66.17 24.55L66.17 24.55Q66.17 21.59 67.29 19.37Q68.42 17.15 70.49 15.90Q72.56 14.65 75.34 14.65L75.34 14.65Q77.22 14.65 78.85 15.25Q80.47 15.85 81.70 17.06Q82.93 18.26 83.62 20.07Q84.31 21.88 84.31 24.34L84.31 24.34L84.31 25.78L68.27 25.78L68.27 22.57L81.80 22.57L79.41 23.42Q79.41 21.93 78.96 20.83Q78.50 19.73 77.61 19.12Q76.71 18.52 75.38 18.52L75.38 18.52Q74.06 18.52 73.13 19.13Q72.20 19.75 71.72 20.80Q71.24 21.85 71.24 23.20L71.24 23.20L71.24 25.47Q71.24 27.13 71.80 28.26Q72.35 29.39 73.35 29.95Q74.35 30.51 75.68 30.51L75.68 30.51Q76.59 30.51 77.32 30.26Q78.06 30.00 78.58 29.50Q79.10 28.99 79.38 28.26L79.38 28.26L84.02 29.13Q83.56 30.70 82.42 31.89Q81.27 33.08 79.56 33.73Q77.84 34.38 75.60 34.38Z"/>
          <!-- "x" in purple -->
          <path fill="#7B19D8" d="M90.26 34L84.23 34L94.74 19.05L94.74 23.01L85.05 8.54L91.10 8.54L93.88 12.81Q94.67 14.02 95.17 14.99Q95.68 15.95 96.10 16.85Q96.51 17.75 97.03 18.70L97.03 18.70L95.64 18.70Q96.16 17.75 96.58 16.86Q97.01 15.97 97.52 15.00Q98.04 14.02 98.82 12.81L98.82 12.81L101.66 8.54L107.57 8.54L98.05 22.72L98.05 18.96L108.32 34L102.14 34L98.60 28.67Q97.90 27.59 97.46 26.84Q97.03 26.09 96.68 25.41Q96.33 24.74 95.87 23.90L95.87 23.90L96.69 23.90Q96.24 24.72 95.88 25.40Q95.52 26.07 95.08 26.83Q94.63 27.59 93.92 28.67L93.92 28.67L90.26 34Z"/>
        </g>
        
      </svg>
    